<?xml version="1.0" standalone="no"?>
<!DOCTYPE svg PUBLIC "-//W3C//DTD SVG 20010904//EN"
 "http://www.w3.org/TR/2001/REC-SVG-20010904/DTD/svg10.dtd">
<svg version="1.0" xmlns="http://www.w3.org/2000/svg"
 width="363.000000pt" height="363.000000pt" viewBox="0 0 363.000000 363.000000"
 preserveAspectRatio="xMidYMid meet">

<g transform="translate(0.000000,363.000000) scale(0.100000,-0.100000)"
fill="#000000" stroke="none">
<path d="M1632 2895 c-167 -30 -336 -101 -462 -195 -74 -55 -198 -181 -252
-255 -50 -69 -122 -215 -147 -300 -103 -336 -43 -703 160 -976 60 -82 195
-212 272 -262 335 -221 748 -248 1102 -70 115 57 201 121 295 220 96 99 137
156 193 268 156 311 156 669 0 980 -56 112 -97 169 -193 268 -169 177 -364
280 -608 322 -102 18 -261 18 -360 0z m440 -69 c298 -76 542 -274 678 -551 28
-55 62 -145 77 -200 23 -88 26 -118 26 -260 0 -140 -3 -172 -26 -257 -80 -302
-276 -542 -552 -678 -55 -28 -145 -62 -200 -77 -88 -23 -118 -26 -260 -26
-142 0 -172 3 -260 26 -370 99 -653 383 -752 755 -23 85 -26 117 -26 257 0
142 3 172 26 260 109 408 444 709 863 775 101 16 297 4 406 -24z"/>
<path d="M1745 2776 c-16 -7 -39 -23 -49 -35 -11 -11 -25 -21 -31 -21 -16 0
-85 -76 -85 -93 0 -8 -18 -19 -41 -26 -54 -16 -112 -71 -137 -129 -19 -46 -27
-96 -72 -482 -58 -494 -99 -701 -166 -849 -44 -96 -38 -107 56 -96 36 4 79 7
95 6 206 -10 193 -7 234 -44 22 -19 48 -38 60 -42 12 -3 21 -10 21 -15 0 -5
12 -23 27 -41 77 -91 239 -91 316 0 15 18 27 36 27 41 0 5 9 12 21 15 12 4 38
23 60 42 41 37 28 34 234 44 17 1 59 -2 95 -6 94 -11 100 0 56 96 -67 148
-108 355 -166 849 -45 386 -53 436 -72 482 -25 58 -83 113 -137 129 -27 8 -41
19 -45 34 -6 25 -64 85 -81 85 -7 0 -20 10 -31 21 -41 46 -128 62 -189 35z
m124 -51 c16 -8 31 -21 34 -30 4 -8 13 -15 21 -15 27 0 75 -50 82 -86 5 -28
11 -34 30 -34 35 0 85 -23 111 -51 31 -34 56 -96 42 -105 -8 -5 -8 -9 0 -14
12 -7 22 -72 61 -405 54 -465 99 -701 157 -834 13 -30 21 -56 19 -58 -2 -3
-32 2 -66 11 -54 14 -64 14 -90 1 -35 -18 -109 -20 -146 -3 -24 11 -28 10 -38
-6 -27 -46 -58 -73 -95 -85 -32 -9 -41 -17 -41 -35 0 -43 -68 -86 -135 -86
-67 0 -135 43 -135 86 0 18 -9 26 -41 35 -37 12 -68 39 -95 85 -10 16 -14 17
-38 6 -37 -17 -111 -15 -146 3 -26 13 -36 13 -90 -1 -34 -9 -64 -14 -66 -11
-8 8 46 117 58 117 9 0 9 3 1 11 -7 7 -7 24 3 56 31 102 73 361 109 663 59
498 50 450 80 450 14 0 25 5 25 10 0 6 -11 10 -25 10 -23 0 -24 2 -15 20 6 11
18 20 28 21 10 0 12 3 5 6 -47 19 52 103 122 103 18 0 24 7 29 34 7 36 55 86
82 86 8 0 17 7 20 15 16 40 94 56 143 30z"/>
<path d="M1792 2641 c-8 -4 -12 -19 -10 -32 2 -19 9 -24 33 -24 24 0 31 5 33
24 4 23 -11 41 -33 41 -5 0 -16 -4 -23 -9z"/>
<path d="M1523 2453 c9 -2 25 -2 35 0 9 3 1 5 -18 5 -19 0 -27 -2 -17 -5z"/>
<path d="M1603 2453 c9 -2 25 -2 35 0 9 3 1 5 -18 5 -19 0 -27 -2 -17 -5z"/>
<path d="M1693 2453 c9 -2 25 -2 35 0 9 3 1 5 -18 5 -19 0 -27 -2 -17 -5z"/>
<path d="M1773 2453 c9 -2 25 -2 35 0 9 3 1 5 -18 5 -19 0 -27 -2 -17 -5z"/>
<path d="M1863 2453 c9 -2 25 -2 35 0 9 3 1 5 -18 5 -19 0 -27 -2 -17 -5z"/>
<path d="M1943 2453 c9 -2 25 -2 35 0 9 3 1 5 -18 5 -19 0 -27 -2 -17 -5z"/>
<path d="M2033 2453 c9 -2 25 -2 35 0 9 3 1 5 -18 5 -19 0 -27 -2 -17 -5z"/>
<path d="M2113 2453 c9 -2 25 -2 35 0 9 3 1 5 -18 5 -19 0 -27 -2 -17 -5z"/>
<path d="M1510 2400 c0 -5 14 -10 30 -10 17 0 30 5 30 10 0 6 -13 10 -30 10
-16 0 -30 -4 -30 -10z"/>
<path d="M1595 2400 c-4 -6 7 -10 24 -10 17 0 31 5 31 10 0 6 -11 10 -24 10
-14 0 -28 -4 -31 -10z"/>
<path d="M1680 2400 c0 -5 14 -10 31 -10 17 0 28 4 24 10 -3 6 -17 10 -31 10
-13 0 -24 -4 -24 -10z"/>
<path d="M1765 2400 c-4 -6 7 -10 25 -10 18 0 29 4 25 10 -3 6 -15 10 -25 10
-10 0 -22 -4 -25 -10z"/>
<path d="M1850 2400 c0 -5 14 -10 31 -10 17 0 28 4 24 10 -3 6 -17 10 -31 10
-13 0 -24 -4 -24 -10z"/>
<path d="M1935 2400 c-4 -6 7 -10 25 -10 18 0 29 4 25 10 -3 6 -15 10 -25 10
-10 0 -22 -4 -25 -10z"/>
<path d="M2020 2400 c0 -5 14 -10 31 -10 17 0 28 4 24 10 -3 6 -17 10 -31 10
-13 0 -24 -4 -24 -10z"/>
<path d="M2105 2400 c-4 -6 7 -10 25 -10 18 0 29 4 25 10 -3 6 -15 10 -25 10
-10 0 -22 -4 -25 -10z"/>
<path d="M1705 2202 l-80 -48 -3 -101 -3 -100 91 -52 90 -51 90 51 91 52 -3
100 -3 101 -80 48 c-44 26 -87 48 -95 48 -8 0 -51 -22 -95 -48z m45 -72 c0
-22 3 -40 7 -40 3 0 21 18 40 40 31 36 73 54 73 31 0 -4 -18 -29 -41 -55 l-41
-46 46 -54 c25 -30 46 -57 46 -60 0 -3 -8 -6 -19 -6 -10 0 -37 20 -59 44 -22
24 -43 41 -46 38 -3 -3 -6 -23 -6 -44 0 -31 -3 -38 -20 -38 -19 0 -20 7 -20
108 0 110 3 122 27 122 9 0 13 -13 13 -40z"/>
<path d="M1734 2055 c0 -55 1 -76 3 -47 2 29 2 74 0 100 -2 26 -3 2 -3 -53z"/>
<path d="M1756 2061 c-3 -5 1 -11 9 -14 9 -4 12 -1 8 9 -6 16 -10 17 -17 5z"/>
<path d="M1527 1888 l-88 -51 3 -105 3 -105 84 -48 85 -48 55 31 c31 17 71 40
89 50 l32 20 0 103 0 103 -67 38 c-38 20 -77 43 -88 50 -18 11 -31 7 -108 -38z
m173 -43 c0 -12 -13 -15 -60 -15 l-60 0 0 -40 0 -40 40 0 c29 0 40 -4 40 -15
0 -11 -11 -15 -40 -15 l-40 0 0 -40 0 -40 60 0 c47 0 60 -3 60 -15 0 -12 -16
-15 -85 -15 l-85 0 0 125 0 125 85 0 c69 0 85 -3 85 -15z"/>
<path d="M1898 1887 l-88 -50 0 -103 0 -103 85 -51 c47 -27 88 -50 90 -50 2 0
43 23 90 50 l85 51 0 102 0 103 -67 39 c-38 21 -77 44 -88 51 -17 10 -32 4
-107 -39z m155 -58 c23 -29 22 -59 -2 -59 -12 0 -21 9 -25 24 -7 29 -37 41
-66 26 -17 -9 -20 -20 -20 -83 0 -77 9 -97 45 -97 29 0 45 19 45 52 0 25 -4
28 -31 28 -50 0 -29 25 24 28 l47 3 0 -50 c0 -73 -38 -101 -115 -87 -46 9 -55
29 -55 124 0 81 8 99 50 115 28 11 85 -2 103 -24z"/>
<path d="M2052 1705 c0 -16 2 -22 5 -12 2 9 2 23 0 30 -3 6 -5 -1 -5 -18z"/>
<path d="M1320 1450 c0 -5 14 -10 30 -10 17 0 30 5 30 10 0 6 -13 10 -30 10
-16 0 -30 -4 -30 -10z"/>
<path d="M1410 1450 c0 -5 11 -10 25 -10 14 0 25 5 25 10 0 6 -11 10 -25 10
-14 0 -25 -4 -25 -10z"/>
<path d="M1490 1450 c0 -5 14 -10 30 -10 17 0 30 5 30 10 0 6 -13 10 -30 10
-16 0 -30 -4 -30 -10z"/>
<path d="M1575 1450 c3 -5 17 -10 31 -10 13 0 24 5 24 10 0 6 -14 10 -31 10
-17 0 -28 -4 -24 -10z"/>
<path d="M1660 1450 c0 -5 14 -10 30 -10 17 0 30 5 30 10 0 6 -13 10 -30 10
-16 0 -30 -4 -30 -10z"/>
<path d="M1740 1450 c0 -5 14 -10 30 -10 17 0 30 5 30 10 0 6 -13 10 -30 10
-16 0 -30 -4 -30 -10z"/>
<path d="M1830 1450 c0 -5 14 -10 30 -10 17 0 30 5 30 10 0 6 -13 10 -30 10
-16 0 -30 -4 -30 -10z"/>
<path d="M1910 1450 c0 -5 14 -10 30 -10 17 0 30 5 30 10 0 6 -13 10 -30 10
-16 0 -30 -4 -30 -10z"/>
<path d="M2000 1450 c0 -5 11 -10 24 -10 14 0 28 5 31 10 4 6 -7 10 -24 10
-17 0 -31 -4 -31 -10z"/>
<path d="M2080 1450 c0 -5 14 -10 30 -10 17 0 30 5 30 10 0 6 -13 10 -30 10
-16 0 -30 -4 -30 -10z"/>
<path d="M2170 1450 c0 -5 11 -10 25 -10 14 0 25 5 25 10 0 6 -11 10 -25 10
-14 0 -25 -4 -25 -10z"/>
<path d="M2250 1450 c0 -5 14 -10 30 -10 17 0 30 5 30 10 0 6 -13 10 -30 10
-16 0 -30 -4 -30 -10z"/>
<path d="M1594 1385 c-19 -14 -18 -14 4 -15 20 0 22 -5 22 -50 0 -27 5 -50 10
-50 6 0 10 28 10 65 0 69 -8 79 -46 50z"/>
<path d="M1700 1381 c-15 -29 3 -61 35 -61 14 0 25 -4 25 -8 0 -15 -24 -32
-44 -32 -15 0 -17 -3 -8 -12 9 -9 18 -9 37 0 35 16 50 53 39 94 -8 27 -15 34
-41 36 -24 2 -34 -2 -43 -17z m58 -23 c-2 -13 -10 -23 -18 -23 -8 0 -16 10
-18 23 -3 17 2 22 18 22 16 0 21 -5 18 -22z"/>
<path d="M1820 1380 c-15 -28 4 -60 35 -60 41 0 25 -32 -20 -42 -18 -5 -19 -6
-2 -13 44 -19 89 53 68 108 -13 34 -64 38 -81 7z m58 -22 c-2 -13 -10 -23 -18
-23 -8 0 -16 10 -18 23 -3 17 2 22 18 22 16 0 21 -5 18 -22z"/>
<path d="M1956 1384 c-33 -33 -12 -124 28 -124 17 0 46 33 46 52 0 23 -27 41
-51 35 -15 -4 -19 -2 -15 10 3 8 6 17 6 19 0 2 11 4 25 4 14 0 25 5 25 10 0
16 -47 12 -64 -6z m42 -76 c-4 -27 -23 -34 -32 -13 -8 21 1 35 20 35 10 0 14
-8 12 -22z"/>
<path d="M1370 1330 c0 -6 35 -10 85 -10 50 0 85 4 85 10 0 6 -35 10 -85 10
-50 0 -85 -4 -85 -10z"/>
<path d="M2090 1330 c0 -6 35 -10 85 -10 50 0 85 4 85 10 0 6 -35 10 -85 10
-50 0 -85 -4 -85 -10z"/>
<path d="M1313 1213 c9 -2 25 -2 35 0 9 3 1 5 -18 5 -19 0 -27 -2 -17 -5z"/>
<path d="M1393 1213 c9 -2 25 -2 35 0 9 3 1 5 -18 5 -19 0 -27 -2 -17 -5z"/>
<path d="M1483 1213 c9 -2 25 -2 35 0 9 3 1 5 -18 5 -19 0 -27 -2 -17 -5z"/>
<path d="M1563 1213 c9 -2 25 -2 35 0 9 3 1 5 -18 5 -19 0 -27 -2 -17 -5z"/>
<path d="M1653 1213 c9 -2 25 -2 35 0 9 3 1 5 -18 5 -19 0 -27 -2 -17 -5z"/>
<path d="M1733 1213 c9 -2 25 -2 35 0 9 3 1 5 -18 5 -19 0 -27 -2 -17 -5z"/>
<path d="M1823 1213 c9 -2 23 -2 30 0 6 3 -1 5 -18 5 -16 0 -22 -2 -12 -5z"/>
<path d="M1903 1213 c9 -2 25 -2 35 0 9 3 1 5 -18 5 -19 0 -27 -2 -17 -5z"/>
<path d="M1983 1213 c9 -2 25 -2 35 0 9 3 1 5 -18 5 -19 0 -27 -2 -17 -5z"/>
<path d="M2073 1213 c9 -2 25 -2 35 0 9 3 1 5 -18 5 -19 0 -27 -2 -17 -5z"/>
<path d="M2153 1213 c9 -2 25 -2 35 0 9 3 1 5 -18 5 -19 0 -27 -2 -17 -5z"/>
<path d="M2243 1213 c9 -2 25 -2 35 0 9 3 1 5 -18 5 -19 0 -27 -2 -17 -5z"/>
<path d="M2323 1213 c9 -2 25 -2 35 0 9 3 1 5 -18 5 -19 0 -27 -2 -17 -5z"/>
<path d="M2330 2548 c-17 -24 -29 -52 -28 -62 4 -29 52 -60 80 -52 26 7 82 81
73 96 -11 18 -22 11 -49 -30 -16 -25 -34 -40 -46 -40 -34 0 -34 27 -1 71 28
39 32 59 11 59 -4 0 -22 -19 -40 -42z"/>
<path d="M1161 2516 c-15 -17 26 -136 47 -136 9 0 13 7 9 19 -6 25 23 52 53
49 43 -5 30 17 -29 50 -69 37 -65 36 -80 18z m58 -62 c-10 -12 -14 -12 -20 -2
-17 26 -11 40 12 28 16 -9 18 -14 8 -26z"/>
<path d="M2461 2435 c-35 -33 -48 -52 -41 -59 7 -7 19 -1 40 19 16 16 32 26
35 23 3 -2 -1 -26 -9 -51 -12 -39 -12 -48 0 -58 10 -8 24 -1 60 34 30 28 44
48 39 56 -5 9 -15 5 -36 -15 -31 -30 -36 -22 -20 33 7 22 5 37 -4 49 -11 16
-17 13 -64 -31z"/>
<path d="M1047 2403 c-13 -12 -7 -20 33 -47 42 -28 49 -46 25 -66 -12 -10 -22
-6 -57 19 -25 19 -46 27 -51 22 -13 -13 -5 -23 42 -55 49 -34 75 -28 99 21
l17 35 -44 39 c-45 40 -53 44 -64 32z"/>
<path d="M2619 2336 c-1 -3 -2 -11 -3 -17 -2 -18 -74 -60 -81 -49 -4 6 -10 8
-15 5 -5 -3 0 -21 13 -40 20 -31 42 -40 32 -12 -7 18 62 59 86 52 20 -7 20 -6
5 23 -15 30 -35 49 -37 38z"/>
<path d="M2637 2192 c-69 -70 -64 -82 28 -82 60 0 75 3 75 15 0 12 -13 15 -57
15 l-58 1 38 33 c20 18 37 38 37 44 0 26 -20 18 -63 -26z"/>
<path d="M927 2217 c-3 -9 4 -19 19 -25 21 -10 23 -14 12 -37 -8 -17 -17 -24
-27 -20 -27 11 -33 10 -38 -3 -4 -11 91 -62 117 -62 21 0 9 31 -15 40 -20 8
-23 13 -16 32 8 22 26 27 60 17 7 -2 16 2 18 8 3 8 -13 21 -39 32 -71 30 -85
33 -91 18z"/>
<path d="M2684 2054 l-61 -15 10 -49 c10 -53 30 -58 25 -7 -2 24 1 33 15 35
12 3 19 -5 23 -27 9 -42 24 -39 24 5 0 42 23 43 28 1 2 -16 9 -27 19 -27 9 0
13 6 10 14 -3 8 -9 31 -13 50 -3 20 -9 36 -13 35 -3 0 -33 -7 -67 -15z"/>
<path d="M860 2001 c-28 -54 5 -111 63 -111 45 0 67 26 67 77 0 36 -3 41 -27
46 -16 3 -31 3 -35 0 -12 -6 -10 -51 2 -58 6 -3 10 1 10 9 0 9 7 16 15 16 8 0
15 -8 15 -18 0 -45 -60 -57 -86 -17 -15 23 -15 27 0 50 14 21 14 25 2 25 -9 0
-20 -9 -26 -19z"/>
<path d="M2713 1912 c-47 -2 -63 -7 -63 -17 0 -9 10 -15 25 -15 14 0 25 -4 25
-8 0 -5 -11 -19 -25 -32 -39 -37 -32 -69 7 -33 16 14 23 15 38 5 28 -17 48
-15 60 7 12 23 14 88 3 93 -5 2 -36 2 -70 0z m50 -38 c3 -4 2 -15 -4 -26 -8
-15 -13 -17 -25 -7 -20 16 -17 39 4 39 10 0 22 -3 25 -6z"/>
<path d="M878 1813 c-55 -6 -51 -33 4 -33 l43 0 -38 -27 c-26 -18 -37 -33 -35
-47 3 -18 9 -20 53 -18 64 4 85 10 85 26 0 10 -13 12 -47 9 l-48 -4 35 30 c19
17 38 31 43 31 4 0 7 9 7 20 0 21 -11 22 -102 13z"/>
<path d="M2650 1751 c-15 -28 -12 -77 5 -91 21 -18 46 -9 64 24 25 45 47 23
26 -26 -5 -13 -3 -18 8 -18 20 0 34 66 20 89 -19 31 -51 25 -74 -13 -32 -55
-51 -27 -24 37 10 24 -12 22 -25 -2z"/>
<path d="M990 1626 c0 -18 -63 -40 -90 -31 -21 7 -23 -1 -12 -43 7 -24 27 -31
27 -10 0 18 76 38 93 25 19 -15 22 -5 10 36 -11 37 -28 50 -28 23z"/>
<path d="M2613 1596 c-12 -38 -7 -52 13 -35 18 15 97 -9 90 -28 -3 -7 1 -13 8
-13 14 0 26 29 26 64 0 15 -3 16 -14 7 -18 -16 -96 6 -96 26 0 26 -17 13 -27
-21z"/>
<path d="M1007 1499 c-15 -9 -17 -18 -11 -55 8 -52 -11 -61 -29 -14 -13 34
-27 40 -27 11 0 -25 38 -71 59 -71 30 0 41 20 34 69 l-6 46 22 -19 c11 -11 21
-30 21 -44 0 -20 3 -22 14 -13 19 16 3 65 -27 86 -25 18 -26 18 -50 4z"/>
<path d="M2567 1486 c-4 -9 12 -21 44 -37 43 -20 49 -26 45 -45 -12 -45 11
-32 37 21 14 30 22 57 17 60 -5 3 -14 -4 -20 -15 -11 -20 -11 -20 -60 5 -58
29 -56 29 -63 11z"/>
<path d="M2495 1370 c-4 -6 4 -19 17 -30 14 -10 30 -37 38 -59 10 -32 16 -38
26 -30 10 8 11 16 4 29 -16 30 -12 39 22 42 50 5 48 28 -4 28 -23 0 -52 7 -62
15 -23 18 -33 19 -41 5z"/>
<path d="M1140 1335 c-7 -9 -26 -25 -42 -36 -23 -17 -32 -19 -44 -9 -31 27
-25 -1 11 -44 37 -46 65 -54 44 -13 -11 19 -7 25 29 58 34 30 39 39 28 48 -10
9 -16 8 -26 -4z"/>
</g>
</svg>
